<?xml version="1.0" encoding="UTF-8" standalone="no"?>
<!DOCTYPE svg PUBLIC "-//W3C//DTD SVG 1.1//EN" "http://www.w3.org/Graphics/SVG/1.1/DTD/svg11.dtd">
<svg width="100%" height="100%" viewBox="0 0 50 50" version="1.1" xmlns="http://www.w3.org/2000/svg" xmlns:xlink="http://www.w3.org/1999/xlink" xml:space="preserve" xmlns:serif="http://www.serif.com/" style="fill-rule:evenodd;clip-rule:evenodd;stroke-linejoin:round;stroke-miterlimit:2;">
    <g id="icon" transform="matrix(1.06383,0,0,1.06383,25,25)">
        <g transform="matrix(1,0,0,1,-23.5,-23.5)">
            <g>
                <path d="M24.348,24.016L22.811,24.016C22.811,24.016 21.435,41.026 21.155,44.478C21.143,44.634 21.196,44.789 21.302,44.904C21.409,45.02 21.558,45.085 21.715,45.085L25.28,45.085C25.437,45.085 25.586,45.021 25.692,44.906C25.798,44.792 25.852,44.638 25.841,44.483C25.59,41.04 24.348,24.016 24.348,24.016Z" style="fill:rgb(45,70,55);"/>
                <path d="M24.169,26.598C23.563,26.743 22.924,26.562 22.483,26.121C22.042,25.68 21.861,25.041 22.005,24.434C22.64,21.766 23.619,17.654 24.478,14.047C25.572,9.449 29.161,5.861 33.758,4.767C39.691,3.354 46.986,1.618 46.986,1.618C46.986,1.618 45.25,8.912 43.837,14.845C42.743,19.443 39.154,23.031 34.557,24.125C30.949,24.984 26.837,25.963 24.169,26.598Z" style="fill:rgb(45,70,55);"/>
                <path d="M22.82,26.598C23.426,26.743 24.065,26.562 24.506,26.121C24.947,25.68 25.128,25.041 24.983,24.434C24.348,21.766 23.369,17.654 22.511,14.047C21.417,9.449 17.828,5.861 13.23,4.767C7.297,3.354 0.003,1.618 0.003,1.618C0.003,1.618 1.739,8.912 3.152,14.845C4.246,19.443 7.835,23.031 12.432,24.125C16.04,24.984 20.151,25.963 22.82,26.598Z" style="fill:rgb(45,70,55);"/>
            </g>
        </g>
    </g>
</svg>
