<?xml version="1.0" encoding="UTF-8" standalone="no"?>
<!DOCTYPE svg PUBLIC "-//W3C//DTD SVG 1.1//EN" "http://www.w3.org/Graphics/SVG/1.1/DTD/svg11.dtd">
<svg width="100%" height="100%" viewBox="0 0 500 500" version="1.1" xmlns="http://www.w3.org/2000/svg" xmlns:xlink="http://www.w3.org/1999/xlink" xml:space="preserve" xmlns:serif="http://www.serif.com/" style="fill-rule:evenodd;clip-rule:evenodd;stroke-linejoin:round;stroke-miterlimit:2;">
    <g transform="matrix(0.948298,0,0,0.948298,12.947,60.9382)">
        <path d="M259.02,238.862L242.668,238.862C242.668,238.862 228.031,419.821 225.056,456.536C224.923,458.199 225.49,459.847 226.622,461.071C227.755,462.301 229.347,463 231.015,463L268.939,463C270.602,463 272.189,462.311 273.316,461.087C274.449,459.872 275.02,458.24 274.903,456.592C272.23,419.964 259.02,238.862 259.02,238.862Z" style="fill:rgb(65,48,34);"/>
    </g>
    <g transform="matrix(0.372414,-0.29347,0.194949,0.24739,65.315,365.339)">
        <path d="M259.02,238.862L242.668,238.862C242.668,238.862 228.031,419.821 225.056,456.536C224.923,458.199 225.49,459.847 226.622,461.071C227.755,462.301 229.347,463 231.015,463L268.939,463C270.602,463 272.189,462.311 273.316,461.087C274.449,459.872 275.02,458.24 274.903,456.592C272.23,419.964 259.02,238.862 259.02,238.862Z" style="fill:rgb(65,48,34);"/>
    </g>
    <g transform="matrix(0.335274,0.335274,-0.222718,0.222718,268.424,174.14)">
        <path d="M259.02,238.862L242.668,238.862C242.668,238.862 228.031,419.821 225.056,456.536C224.923,458.199 225.49,459.847 226.622,461.071C227.755,462.301 229.347,463 231.015,463L268.939,463C270.602,463 272.189,462.311 273.316,461.087C274.449,459.872 275.02,458.24 274.903,456.592C272.23,419.964 259.02,238.862 259.02,238.862Z" style="fill:rgb(65,48,34);"/>
    </g>
    <g transform="matrix(1.22071,-1.22071,0.768371,0.768371,-252.067,343.306)">
        <path d="M182.065,74.277C182.065,74.277 194.922,98.496 209.45,125.863C232.874,169.99 232.874,234.513 209.45,278.64C198.536,299.2 188.564,317.983 184.279,326.055C183.729,327.092 182.919,327.69 182.065,327.69C181.212,327.69 180.402,327.092 179.851,326.055C175.566,317.983 165.595,299.2 154.681,278.64C131.257,234.513 131.257,169.99 154.681,125.863C169.209,98.496 182.065,74.277 182.065,74.277Z" style="fill:rgb(96,166,37);"/>
    </g>
    <g transform="matrix(1.86898,-0.143824,0.0905295,1.17643,-117.92,-57.3413)">
        <path d="M182.065,74.277C182.065,74.277 196.869,102.163 212.655,131.901C234.228,172.54 234.228,231.963 212.655,272.602C200.375,295.735 188.689,317.748 184.104,326.385C183.598,327.34 182.852,327.891 182.065,327.891C181.279,327.891 180.533,327.34 180.026,326.385C175.442,317.748 163.756,295.735 151.476,272.602C129.903,231.963 129.903,172.54 151.476,131.901C167.262,102.163 182.065,74.277 182.065,74.277Z" style="fill:rgb(126,192,70);"/>
    </g>
    <g transform="matrix(1.32548,1.32548,-0.834319,0.834319,320.647,-191.914)">
        <path d="M182.065,74.277C182.065,74.277 196.869,102.163 212.655,131.901C234.228,172.54 234.228,231.963 212.655,272.602C200.375,295.735 188.689,317.748 184.104,326.385C183.598,327.34 182.852,327.891 182.065,327.891C181.279,327.891 180.533,327.34 180.026,326.385C175.442,317.748 163.756,295.735 151.476,272.602C129.903,231.963 129.903,172.54 151.476,131.901C167.262,102.163 182.065,74.277 182.065,74.277Z" style="fill:rgb(107,164,60);"/>
    </g>
</svg>
