<?xml version="1.0" encoding="UTF-8" standalone="no"?>
<!DOCTYPE svg PUBLIC "-//W3C//DTD SVG 1.1//EN" "http://www.w3.org/Graphics/SVG/1.1/DTD/svg11.dtd">
<svg width="100%" height="100%" viewBox="0 0 500 500" version="1.1" xmlns="http://www.w3.org/2000/svg" xmlns:xlink="http://www.w3.org/1999/xlink" xml:space="preserve" xmlns:serif="http://www.serif.com/" style="fill-rule:evenodd;clip-rule:evenodd;stroke-linejoin:round;stroke-miterlimit:2;">
    <g transform="matrix(1.12658,0,0,1.90771,-50.8737,-383.269)">
        <path d="M259.02,238.862L242.668,238.862C242.668,238.862 228.031,419.821 225.056,456.536C224.923,458.199 225.49,459.847 226.622,461.071C227.755,462.301 229.347,463 231.015,463L268.939,463C270.602,463 272.189,462.311 273.316,461.087C274.449,459.872 275.02,458.24 274.903,456.592C272.23,419.964 259.02,238.862 259.02,238.862Z" style="fill:rgb(65,48,34);"/>
    </g>
    <g transform="matrix(0.227175,-0.179019,0.264122,0.335171,46.857,231.76)">
        <path d="M259.02,238.862L242.668,238.862C242.668,238.862 228.031,419.821 225.056,456.536C224.923,458.199 225.49,459.847 226.622,461.071C227.755,462.301 229.347,463 231.015,463L268.939,463C270.602,463 272.189,462.311 273.316,461.087C274.449,459.872 275.02,458.24 274.903,456.592C272.23,419.964 259.02,238.862 259.02,238.862Z" style="fill:rgb(65,48,34);"/>
    </g>
    <g transform="matrix(0.60885,0.60885,-0.404451,0.404451,266.078,90.8868)">
        <path d="M259.02,238.862L242.668,238.862C242.668,238.862 228.031,419.821 225.056,456.536C224.923,458.199 225.49,459.847 226.622,461.071C227.755,462.301 229.347,463 231.015,463L268.939,463C270.602,463 272.189,462.311 273.316,461.087C274.449,459.872 275.02,458.24 274.903,456.592C272.23,419.964 259.02,238.862 259.02,238.862Z" style="fill:rgb(65,48,34);"/>
    </g>
    <g transform="matrix(-0.344895,1.28717,-1.03982,-0.278619,484.439,-24.9745)">
        <path d="M132.315,84.276C105.254,106.126 68.479,129.624 68.479,205.407C68.479,281.189 102.802,295.119 121.289,302.228C138.056,308.675 241.339,322.943 261.036,217.695C282.283,104.168 260.766,91.424 230.845,74.311C203.375,58.601 157.999,63.539 132.315,84.276Z" style="fill:rgb(109,172,56);"/>
    </g>
    <g transform="matrix(-0.16821,0.627768,-0.507133,-0.135886,457.439,253.27)">
        <path d="M132.315,84.276C105.254,106.126 68.479,129.624 68.479,205.407C68.479,281.189 102.802,295.119 121.289,302.228C138.056,308.675 241.339,322.943 261.036,217.695C282.283,104.168 260.766,91.424 230.845,74.311C203.375,58.601 157.999,63.539 132.315,84.276Z" style="fill:rgb(80,126,40);"/>
    </g>
    <g transform="matrix(1,0,0,1,-44.4949,30.474)">
        <circle cx="215.206" cy="139.917" r="3.185" style="fill:rgb(159,230,100);"/>
    </g>
    <g transform="matrix(0.367902,0,0,0.367902,140.598,36.3543)">
        <circle cx="272.299" cy="64.775" r="5.651" style="fill:rgb(159,230,100);"/>
    </g>
    <g transform="matrix(1,0,0,1,-91.5442,-138.289)">
        <circle cx="290.759" cy="235.815" r="1.507" style="fill:rgb(159,230,100);"/>
    </g>
    <g transform="matrix(1,0,0,1,22.4369,-18.7752)">
        <circle cx="136.225" cy="159.68" r="2.198" style="fill:rgb(159,230,100);"/>
    </g>
    <circle cx="177.3" cy="44.578" r="6.384" style="fill:rgb(159,230,100);"/>
    <g transform="matrix(1,0,0,1,86.4122,-75.5084)">
        <circle cx="201.369" cy="222.274" r="3.663" style="fill:rgb(159,230,100);"/>
    </g>
    <g transform="matrix(1,0,0,1,-2.09751,9.4388)">
        <circle cx="361.782" cy="295.415" r="2.215" style="fill:rgb(113,186,51);"/>
    </g>
    <g transform="matrix(1,0,0,1,74.8034,-35.4975)">
        <circle cx="307.202" cy="384.573" r="3.643" style="fill:rgb(113,186,51);"/>
    </g>
    <g transform="matrix(1,0,0,1,-2.09751,9.4388)">
        <circle cx="360.675" cy="334.886" r="1.107" style="fill:rgb(113,186,51);"/>
    </g>
    <g transform="matrix(1,0,0,1,-2.09751,9.4388)">
        <circle cx="344.994" cy="366.642" r="4.572" style="fill:rgb(113,186,51);"/>
    </g>
    <g transform="matrix(1,0,0,1,-2.09751,9.4388)">
        <circle cx="334.887" cy="317.526" r="1.178" style="fill:rgb(113,186,51);"/>
    </g>
</svg>
