<?xml version="1.0" encoding="UTF-8" standalone="no"?>
<!DOCTYPE svg PUBLIC "-//W3C//DTD SVG 1.1//EN" "http://www.w3.org/Graphics/SVG/1.1/DTD/svg11.dtd">
<svg width="100%" height="100%" viewBox="0 0 500 500" version="1.1" xmlns="http://www.w3.org/2000/svg" xmlns:xlink="http://www.w3.org/1999/xlink" xml:space="preserve" xmlns:serif="http://www.serif.com/" style="fill-rule:evenodd;clip-rule:evenodd;stroke-linejoin:round;stroke-miterlimit:2;">
    <g transform="matrix(1,0,0,1,0.0225344,37)">
        <path d="M259.02,238.862L242.668,238.862C242.668,238.862 228.031,419.821 225.056,456.536C224.923,458.199 225.49,459.847 226.622,461.071C227.755,462.301 229.347,463 231.015,463L268.939,463C270.602,463 272.189,462.311 273.316,461.087C274.449,459.872 275.02,458.24 274.903,456.592C272.23,419.964 259.02,238.862 259.02,238.862Z" style="fill:rgb(65,48,34);"/>
    </g>
    <g transform="matrix(1.59832,-1.59832,1.00606,1.00606,-365.725,285.939)">
        <path d="M182.065,74.277C182.065,74.277 201.108,110.15 219.03,143.91C236.92,177.612 236.92,226.891 219.03,260.593C204.293,288.354 188.798,317.543 183.756,327.041C183.336,327.833 182.717,328.289 182.065,328.289C181.413,328.289 180.795,327.833 180.374,327.041C175.333,317.543 159.838,288.354 145.101,260.593C127.211,226.891 127.211,177.612 145.101,143.91C163.022,110.15 182.065,74.277 182.065,74.277Z" style="fill:rgb(96,166,37);"/>
    </g>
    <g transform="matrix(1.59832,1.59832,-1.00606,1.00606,283.729,-296.057)">
        <path d="M182.065,74.277C182.065,74.277 201.108,110.15 219.03,143.91C236.92,177.612 236.92,226.891 219.03,260.593C204.293,288.354 188.798,317.543 183.756,327.041C183.336,327.833 182.717,328.289 182.065,328.289C181.413,328.289 180.795,327.833 180.374,327.041C175.333,317.543 159.838,288.354 145.101,260.593C127.211,226.891 127.211,177.612 145.101,143.91C163.022,110.15 182.065,74.277 182.065,74.277Z" style="fill:rgb(126,192,70);"/>
    </g>
</svg>
