<?xml version="1.0" encoding="UTF-8" standalone="no"?>
<!DOCTYPE svg PUBLIC "-//W3C//DTD SVG 1.1//EN" "http://www.w3.org/Graphics/SVG/1.1/DTD/svg11.dtd">
<svg width="100%" height="100%" viewBox="0 0 500 500" version="1.1" xmlns="http://www.w3.org/2000/svg" xmlns:xlink="http://www.w3.org/1999/xlink" xml:space="preserve" xmlns:serif="http://www.serif.com/" style="fill-rule:evenodd;clip-rule:evenodd;stroke-linejoin:round;stroke-miterlimit:2;">
    <g transform="matrix(1.20236,0,0,1.97921,-50.5628,-416.374)">
        <path d="M259.02,238.862L242.668,238.862C242.668,238.862 228.031,419.821 225.056,456.536C224.923,458.199 225.49,459.847 226.622,461.071C227.755,462.301 229.347,463 231.015,463L268.939,463C270.602,463 272.189,462.311 273.316,461.087C274.449,459.872 275.02,458.24 274.903,456.592C272.23,419.964 259.02,238.862 259.02,238.862Z" style="fill:rgb(65,48,34);"/>
    </g>
    <g transform="matrix(0.474368,-0.240989,0.188417,0.370885,36.6926,268.181)">
        <path d="M259.02,238.862L242.668,238.862C242.668,238.862 228.031,419.821 225.056,456.536C224.923,458.199 225.49,459.847 226.622,461.071C227.755,462.301 229.347,463 231.015,463L268.939,463C270.602,463 272.189,462.311 273.316,461.087C274.449,459.872 275.02,458.24 274.903,456.592C272.23,419.964 259.02,238.862 259.02,238.862Z" style="fill:rgb(65,48,34);"/>
    </g>
    <g transform="matrix(0.426263,0.318435,-0.469814,0.628902,373.463,23.2544)">
        <path d="M259.02,238.862L242.668,238.862C242.668,238.862 228.031,419.821 225.056,456.536C224.923,458.199 225.49,459.847 226.622,461.071C227.755,462.301 229.347,463 231.015,463L268.939,463C270.602,463 272.189,462.311 273.316,461.087C274.449,459.872 275.02,458.24 274.903,456.592C272.23,419.964 259.02,238.862 259.02,238.862Z" style="fill:rgb(65,48,34);"/>
    </g>
    <g transform="matrix(1.29978,0.318653,-0.273369,1.11507,88.8823,-128.916)">
        <path d="M132.315,84.276C105.254,106.126 68.479,129.624 68.479,205.407C68.479,281.189 102.802,295.119 121.289,302.228C138.056,308.675 241.339,322.943 261.036,217.695C282.283,104.168 260.766,91.424 230.845,74.311C203.375,58.601 157.999,63.539 132.315,84.276Z" style="fill:rgb(109,172,56);"/>
    </g>
    <g transform="matrix(1.6581,1.6581,-0.445932,0.445932,159.96,-128.192)">
        <path d="M182.065,74.277C182.065,74.277 182.154,74.444 182.326,74.768C195.247,99.108 203.391,148.393 203.391,202.252C203.391,256.11 195.247,305.395 182.326,329.735C182.326,329.736 182.326,329.736 182.326,329.736C182.162,330.044 181.969,330.044 181.805,329.736C181.805,329.736 181.805,329.736 181.805,329.735C168.884,305.395 160.74,256.11 160.74,202.252C160.74,148.393 168.884,99.108 181.805,74.768C181.976,74.444 182.065,74.277 182.065,74.277Z" style="fill:rgb(91,143,48);"/>
    </g>
    <g transform="matrix(1,0,0,1,-30.8532,45.9345)">
        <circle cx="215.206" cy="139.917" r="3.185" style="fill:rgb(159,230,100);"/>
    </g>
    <g transform="matrix(0.367902,0,0,0.367902,154.239,51.8148)">
        <circle cx="272.299" cy="64.775" r="5.651" style="fill:rgb(159,230,100);"/>
    </g>
    <g transform="matrix(1,0,0,1,-77.9025,-122.829)">
        <circle cx="290.759" cy="235.815" r="1.507" style="fill:rgb(159,230,100);"/>
    </g>
    <g transform="matrix(1,0,0,1,36.0785,-3.31466)">
        <circle cx="136.225" cy="159.68" r="2.198" style="fill:rgb(159,230,100);"/>
    </g>
    <g transform="matrix(1,0,0,1,13.6417,15.4605)">
        <circle cx="177.3" cy="44.578" r="6.384" style="fill:rgb(159,230,100);"/>
    </g>
    <g transform="matrix(1,0,0,1,100.054,-60.0479)">
        <circle cx="201.369" cy="222.274" r="3.663" style="fill:rgb(159,230,100);"/>
    </g>
</svg>
