<?xml version="1.0" encoding="UTF-8" standalone="no"?>
<!DOCTYPE svg PUBLIC "-//W3C//DTD SVG 1.1//EN" "http://www.w3.org/Graphics/SVG/1.1/DTD/svg11.dtd">
<svg width="100%" height="100%" viewBox="0 0 500 500" version="1.1" xmlns="http://www.w3.org/2000/svg" xmlns:xlink="http://www.w3.org/1999/xlink" xml:space="preserve" xmlns:serif="http://www.serif.com/" style="fill-rule:evenodd;clip-rule:evenodd;stroke-linejoin:round;stroke-miterlimit:2;">
    <g transform="matrix(1.00686,0,0,1.00686,-1.69137,33.8256)">
        <path d="M259.02,238.862L242.668,238.862C242.668,238.862 228.031,419.821 225.056,456.536C224.923,458.199 225.49,459.847 226.622,461.071C227.755,462.301 229.347,463 231.015,463L268.939,463C270.602,463 272.189,462.311 273.316,461.087C274.449,459.872 275.02,458.24 274.903,456.592C272.23,419.964 259.02,238.862 259.02,238.862Z" style="fill:rgb(65,48,34);"/>
    </g>
    <g transform="matrix(0.395411,-0.311592,0.206987,0.262667,50.1645,344.115)">
        <path d="M259.02,238.862L242.668,238.862C242.668,238.862 228.031,419.821 225.056,456.536C224.923,458.199 225.49,459.847 226.622,461.071C227.755,462.301 229.347,463 231.015,463L268.939,463C270.602,463 272.189,462.311 273.316,461.087C274.449,459.872 275.02,458.24 274.903,456.592C272.23,419.964 259.02,238.862 259.02,238.862Z" style="fill:rgb(65,48,34);"/>
    </g>
    <g transform="matrix(0.355977,0.355977,-0.236471,0.236471,271.732,147.147)">
        <path d="M259.02,238.862L242.668,238.862C242.668,238.862 228.031,419.821 225.056,456.536C224.923,458.199 225.49,459.847 226.622,461.071C227.755,462.301 229.347,463 231.015,463L268.939,463C270.602,463 272.189,462.311 273.316,461.087C274.449,459.872 275.02,458.24 274.903,456.592C272.23,419.964 259.02,238.862 259.02,238.862Z" style="fill:rgb(65,48,34);"/>
    </g>
    <g transform="matrix(1.00262,-0.34939,0.34939,1.00262,-85.8138,107.851)">
        <path d="M132.315,84.276C105.254,106.126 68.479,129.624 68.479,205.407C68.479,281.189 102.802,295.119 121.289,302.228C138.056,308.675 241.339,322.943 261.036,217.695C282.283,104.168 260.766,91.424 230.845,74.311C203.375,58.601 157.999,63.539 132.315,84.276Z" style="fill:rgb(63,107,25);"/>
    </g>
    <g transform="matrix(1.00262,-0.34939,0.34939,1.00262,96.1648,107.851)">
        <path d="M132.315,84.276C105.254,106.126 68.479,129.624 68.479,205.407C68.479,281.189 102.802,295.119 121.289,302.228C138.056,308.675 241.339,322.943 261.036,217.695C282.283,104.168 260.766,91.424 230.845,74.311C203.375,58.601 157.999,63.539 132.315,84.276Z" style="fill:rgb(126,192,70);"/>
    </g>
    <g transform="matrix(0.896084,0.896084,-0.785806,0.785806,246.098,-177.951)">
        <path d="M132.315,84.276C105.254,106.126 68.479,129.624 68.479,205.407C68.479,281.189 102.802,295.119 121.289,302.228C138.056,308.675 241.339,322.943 261.036,217.695C282.283,104.168 260.766,91.424 230.845,74.311C203.375,58.601 157.999,63.539 132.315,84.276Z" style="fill:rgb(96,166,37);"/>
    </g>
    <g transform="matrix(0.385774,0.323447,-0.214862,0.256265,255.293,149.177)">
        <path d="M259.02,238.862L242.668,238.862C242.668,238.862 228.031,419.821 225.056,456.536C224.923,458.199 225.49,459.847 226.622,461.071C227.755,462.301 229.347,463 231.015,463L268.939,463C270.602,463 272.189,462.311 273.316,461.087C274.449,459.872 275.02,458.24 274.903,456.592C272.23,419.964 259.02,238.862 259.02,238.862Z" style="fill:rgb(65,48,34);"/>
    </g>
    <g transform="matrix(0.633636,0.633636,-0.555656,0.555656,325.205,20.9778)">
        <path d="M132.315,84.276C105.254,106.126 68.479,129.624 68.479,205.407C68.479,281.189 102.802,295.119 121.289,302.228C138.056,308.675 241.339,322.943 261.036,217.695C282.283,104.168 260.766,91.424 230.845,74.311C203.375,58.601 157.999,63.539 132.315,84.276Z" style="fill:rgb(74,141,18);"/>
    </g>
    <ellipse cx="253.023" cy="387.83" rx="9.446" ry="12.308" style="fill:rgb(43,22,4);"/>
    <g transform="matrix(1,0,0,1,-14.0734,20.0437)">
        <circle cx="215.206" cy="139.917" r="3.185" style="fill:rgb(159,230,100);"/>
    </g>
    <g transform="matrix(0.367902,0,0,0.367902,171.019,25.9241)">
        <circle cx="272.299" cy="64.775" r="5.651" style="fill:rgb(159,230,100);"/>
    </g>
    <g transform="matrix(1,0,0,1,-61.1227,-148.72)">
        <circle cx="290.759" cy="235.815" r="1.507" style="fill:rgb(159,230,100);"/>
    </g>
    <g transform="matrix(1,0,0,1,52.8584,-29.2054)">
        <circle cx="136.225" cy="159.68" r="2.198" style="fill:rgb(159,230,100);"/>
    </g>
    <g transform="matrix(1,0,0,1,30.4215,-10.4302)">
        <circle cx="177.3" cy="44.578" r="6.384" style="fill:rgb(159,230,100);"/>
    </g>
    <g transform="matrix(1,0,0,1,116.834,-85.9387)">
        <circle cx="201.369" cy="222.274" r="3.663" style="fill:rgb(159,230,100);"/>
    </g>
    <g transform="matrix(1,0,0,1,6.58961,-95.0647)">
        <circle cx="361.782" cy="295.415" r="2.215" style="fill:rgb(113,186,51);"/>
    </g>
    <g transform="matrix(1,0,0,1,83.4905,-140.001)">
        <circle cx="307.202" cy="384.573" r="3.643" style="fill:rgb(113,186,51);"/>
    </g>
    <g transform="matrix(1,0,0,1,6.58961,-95.0647)">
        <circle cx="360.675" cy="334.886" r="1.107" style="fill:rgb(113,186,51);"/>
    </g>
    <g transform="matrix(1,0,0,1,6.58961,-95.0647)">
        <circle cx="344.994" cy="366.642" r="4.572" style="fill:rgb(113,186,51);"/>
    </g>
    <g transform="matrix(1,0,0,1,6.58961,-95.0647)">
        <circle cx="334.887" cy="317.526" r="1.178" style="fill:rgb(113,186,51);"/>
    </g>
    <g transform="matrix(0.959104,-0.283053,0.283053,0.959104,-45.5807,23.8001)">
        <circle cx="85.747" cy="195.724" r="2.421" style="fill:rgb(105,181,40);"/>
    </g>
    <g transform="matrix(0.560337,-0.165368,0.165368,0.560337,36.2603,129.552)">
        <circle cx="51.097" cy="279.737" r="2.803" style="fill:rgb(105,181,40);"/>
    </g>
    <g transform="matrix(0.560337,-0.165368,0.165368,0.560337,39.0511,62.2836)">
        <circle cx="51.097" cy="279.737" r="2.803" style="fill:rgb(105,181,40);"/>
    </g>
    <g transform="matrix(0.560337,-0.165368,0.165368,0.560337,1.21825,126.53)">
        <circle cx="51.097" cy="279.737" r="2.803" style="fill:rgb(105,181,40);"/>
    </g>
    <g transform="matrix(0.702084,-0.2072,0.2072,0.702084,2.22252,113.888)">
        <circle cx="131.076" cy="308.666" r="9.3" style="fill:rgb(105,181,40);"/>
    </g>
    <g transform="matrix(0.959104,-0.283053,0.283053,0.959104,-64.6974,13.1091)">
        <circle cx="80.051" cy="253.275" r="3.275" style="fill:rgb(105,181,40);"/>
    </g>
    <g transform="matrix(1.43736,-0.424195,0.424195,1.43736,-147.541,-120.077)">
        <circle cx="78.413" cy="324.246" r="1.638" style="fill:rgb(105,181,40);"/>
    </g>
</svg>
